<mxfile host="app.diagrams.net" modified="2021-01-30T07:43:46.601Z" agent="5.0 (Windows NT 10.0; Win64; x64) AppleWebKit/537.36 (KHTML, like Gecko) Chrome/88.0.4324.104 Safari/537.36" etag="8wjr7hpJ2XLuttUgQNA5" version="14.2.9" type="github">
  <diagram name="Page-1" id="c37626ed-c26b-45fb-9056-f9ebc6bb27b6">
    <mxGraphModel dx="1125" dy="692" grid="1" gridSize="10" guides="1" tooltips="1" connect="1" arrows="1" fold="1" page="1" pageScale="1" pageWidth="1100" pageHeight="850" background="#ffffff" math="0" shadow="0">
      <root>
        <mxCell id="0" />
        <mxCell id="1" parent="0" />
        <mxCell id="2uFizKQerU9EEzA_Ginz-6" style="edgeStyle=orthogonalEdgeStyle;rounded=0;orthogonalLoop=1;jettySize=auto;html=1;exitX=1;exitY=0.5;exitDx=0;exitDy=0;exitPerimeter=0;entryX=0;entryY=0.5;entryDx=0;entryDy=0;entryPerimeter=0;" edge="1" parent="1" source="2uFizKQerU9EEzA_Ginz-1" target="2uFizKQerU9EEzA_Ginz-5">
          <mxGeometry relative="1" as="geometry" />
        </mxCell>
        <mxCell id="2uFizKQerU9EEzA_Ginz-8" value="eth3" style="edgeStyle=orthogonalEdgeStyle;rounded=0;orthogonalLoop=1;jettySize=auto;html=1;exitX=0.12;exitY=0.93;exitDx=0;exitDy=0;exitPerimeter=0;entryX=0.5;entryY=0.32;entryDx=0;entryDy=0;entryPerimeter=0;" edge="1" parent="1" source="2uFizKQerU9EEzA_Ginz-1" target="2uFizKQerU9EEzA_Ginz-10">
          <mxGeometry relative="1" as="geometry">
            <mxPoint x="460" y="480" as="targetPoint" />
          </mxGeometry>
        </mxCell>
        <mxCell id="2uFizKQerU9EEzA_Ginz-1" value="移动光猫&lt;br&gt;192.168,1,1" style="shape=mxgraph.cisco.routers.wireless_router;html=1;pointerEvents=1;dashed=0;fillColor=#036897;strokeColor=#ffffff;strokeWidth=2;verticalLabelPosition=bottom;verticalAlign=top;align=center;outlineConnect=0;" vertex="1" parent="1">
          <mxGeometry x="500" y="170" width="78" height="77" as="geometry" />
        </mxCell>
        <mxCell id="2uFizKQerU9EEzA_Ginz-4" style="edgeStyle=orthogonalEdgeStyle;rounded=0;orthogonalLoop=1;jettySize=auto;html=1;exitX=0.5;exitY=1;exitDx=0;exitDy=0;exitPerimeter=0;" edge="1" parent="1" source="2uFizKQerU9EEzA_Ginz-2" target="2uFizKQerU9EEzA_Ginz-1">
          <mxGeometry relative="1" as="geometry" />
        </mxCell>
        <mxCell id="2uFizKQerU9EEzA_Ginz-2" value="移动" style="shape=mxgraph.cisco.routers.router_in_building;html=1;pointerEvents=1;dashed=0;fillColor=#036897;strokeColor=#ffffff;strokeWidth=2;verticalLabelPosition=bottom;verticalAlign=top;align=center;outlineConnect=0;" vertex="1" parent="1">
          <mxGeometry x="100" y="42" width="91" height="138" as="geometry" />
        </mxCell>
        <mxCell id="2uFizKQerU9EEzA_Ginz-12" style="edgeStyle=orthogonalEdgeStyle;rounded=0;orthogonalLoop=1;jettySize=auto;html=1;exitX=1;exitY=0.5;exitDx=0;exitDy=0;exitPerimeter=0;" edge="1" parent="1" source="2uFizKQerU9EEzA_Ginz-5" target="2uFizKQerU9EEzA_Ginz-11">
          <mxGeometry relative="1" as="geometry" />
        </mxCell>
        <mxCell id="2uFizKQerU9EEzA_Ginz-5" value="客厅路由器&lt;br&gt;192.168.1.xxx" style="shape=mxgraph.cisco.routers.wireless_router;html=1;pointerEvents=1;dashed=0;fillColor=#036897;strokeColor=#ffffff;strokeWidth=2;verticalLabelPosition=bottom;verticalAlign=top;align=center;outlineConnect=0;" vertex="1" parent="1">
          <mxGeometry x="790" y="170" width="78" height="77" as="geometry" />
        </mxCell>
        <mxCell id="2uFizKQerU9EEzA_Ginz-14" style="edgeStyle=orthogonalEdgeStyle;rounded=0;orthogonalLoop=1;jettySize=auto;html=1;exitX=1;exitY=0.5;exitDx=0;exitDy=0;exitPerimeter=0;entryX=0;entryY=0.5;entryDx=0;entryDy=0;entryPerimeter=0;" edge="1" parent="1" source="2uFizKQerU9EEzA_Ginz-10" target="2uFizKQerU9EEzA_Ginz-13">
          <mxGeometry relative="1" as="geometry" />
        </mxCell>
        <mxCell id="2uFizKQerU9EEzA_Ginz-15" value="br0" style="edgeStyle=orthogonalEdgeStyle;rounded=0;orthogonalLoop=1;jettySize=auto;html=1;" edge="1" parent="1" source="2uFizKQerU9EEzA_Ginz-10" target="2uFizKQerU9EEzA_Ginz-13">
          <mxGeometry relative="1" as="geometry" />
        </mxCell>
        <mxCell id="2uFizKQerU9EEzA_Ginz-10" value="RM2100&lt;br&gt;192.168.1.xxx" style="shape=mxgraph.cisco.routers.wireless_router;html=1;pointerEvents=1;dashed=0;fillColor=#036897;strokeColor=#ffffff;strokeWidth=2;verticalLabelPosition=bottom;verticalAlign=top;align=center;outlineConnect=0;" vertex="1" parent="1">
          <mxGeometry x="380" y="470" width="100" height="77" as="geometry" />
        </mxCell>
        <mxCell id="2uFizKQerU9EEzA_Ginz-11" value="192.168.10.1" style="shape=mxgraph.cisco.misc.bridge;html=1;pointerEvents=1;dashed=0;fillColor=#036897;strokeColor=#ffffff;strokeWidth=2;verticalLabelPosition=bottom;verticalAlign=top;align=center;outlineConnect=0;" vertex="1" parent="1">
          <mxGeometry x="920" y="180.5" width="74" height="56" as="geometry" />
        </mxCell>
        <mxCell id="2uFizKQerU9EEzA_Ginz-24" style="edgeStyle=orthogonalEdgeStyle;rounded=0;orthogonalLoop=1;jettySize=auto;html=1;exitX=0.5;exitY=0.22;exitDx=0;exitDy=0;exitPerimeter=0;entryX=0.28;entryY=0.5;entryDx=0;entryDy=0;entryPerimeter=0;" edge="1" parent="1" source="2uFizKQerU9EEzA_Ginz-13" target="2uFizKQerU9EEzA_Ginz-16">
          <mxGeometry relative="1" as="geometry">
            <Array as="points">
              <mxPoint x="597" y="450" />
            </Array>
          </mxGeometry>
        </mxCell>
        <mxCell id="2uFizKQerU9EEzA_Ginz-25" style="edgeStyle=orthogonalEdgeStyle;rounded=0;orthogonalLoop=1;jettySize=auto;html=1;exitX=0.5;exitY=1;exitDx=0;exitDy=0;exitPerimeter=0;entryX=0;entryY=1;entryDx=0;entryDy=0;entryPerimeter=0;" edge="1" parent="1" source="2uFizKQerU9EEzA_Ginz-13" target="2uFizKQerU9EEzA_Ginz-17">
          <mxGeometry relative="1" as="geometry">
            <Array as="points">
              <mxPoint x="597" y="634" />
            </Array>
          </mxGeometry>
        </mxCell>
        <mxCell id="2uFizKQerU9EEzA_Ginz-13" value="RM2100网桥&lt;br&gt;192.168.2.1" style="shape=mxgraph.cisco.misc.bridge;html=1;pointerEvents=1;dashed=0;fillColor=#036897;strokeColor=#ffffff;strokeWidth=2;verticalLabelPosition=bottom;verticalAlign=top;align=center;outlineConnect=0;" vertex="1" parent="1">
          <mxGeometry x="560" y="480.5" width="74" height="56" as="geometry" />
        </mxCell>
        <mxCell id="2uFizKQerU9EEzA_Ginz-21" value="桥接" style="edgeStyle=orthogonalEdgeStyle;rounded=0;orthogonalLoop=1;jettySize=auto;html=1;exitX=0.95;exitY=0.5;exitDx=0;exitDy=0;exitPerimeter=0;entryX=0;entryY=0.5;entryDx=0;entryDy=0;" edge="1" parent="1" source="2uFizKQerU9EEzA_Ginz-16" target="2uFizKQerU9EEzA_Ginz-20">
          <mxGeometry relative="1" as="geometry" />
        </mxCell>
        <mxCell id="2uFizKQerU9EEzA_Ginz-16" value="飞行堡垒5&lt;br&gt;192.168.2.112" style="shape=mxgraph.cisco.computers_and_peripherals.laptop;html=1;pointerEvents=1;dashed=0;fillColor=#036897;strokeColor=#ffffff;strokeWidth=2;verticalLabelPosition=bottom;verticalAlign=top;align=center;outlineConnect=0;" vertex="1" parent="1">
          <mxGeometry x="800" y="419" width="90" height="61" as="geometry" />
        </mxCell>
        <mxCell id="2uFizKQerU9EEzA_Ginz-19" value="桥接" style="edgeStyle=orthogonalEdgeStyle;rounded=0;orthogonalLoop=1;jettySize=auto;html=1;exitX=1;exitY=0.5;exitDx=0;exitDy=0;exitPerimeter=0;entryX=0;entryY=0.5;entryDx=0;entryDy=0;" edge="1" parent="1" source="2uFizKQerU9EEzA_Ginz-17" target="2uFizKQerU9EEzA_Ginz-18">
          <mxGeometry relative="1" as="geometry">
            <Array as="points">
              <mxPoint x="900" y="607" />
              <mxPoint x="900" y="607" />
            </Array>
          </mxGeometry>
        </mxCell>
        <mxCell id="2uFizKQerU9EEzA_Ginz-17" value="斐讯n1&lt;br&gt;192.168.2.242" style="shape=mxgraph.cisco.computers_and_peripherals.terminal;html=1;pointerEvents=1;dashed=0;fillColor=#036897;strokeColor=#ffffff;strokeWidth=2;verticalLabelPosition=bottom;verticalAlign=top;align=center;outlineConnect=0;" vertex="1" parent="1">
          <mxGeometry x="798.5" y="580" width="61" height="54" as="geometry" />
        </mxCell>
        <mxCell id="2uFizKQerU9EEzA_Ginz-18" value="openwrt系统&lt;br&gt;192.168.2.222" style="rounded=0;whiteSpace=wrap;html=1;" vertex="1" parent="1">
          <mxGeometry x="960" y="586" width="90" height="48" as="geometry" />
        </mxCell>
        <mxCell id="2uFizKQerU9EEzA_Ginz-20" value="VMware CentOS7&lt;br&gt;192.168.2.113" style="rounded=0;whiteSpace=wrap;html=1;" vertex="1" parent="1">
          <mxGeometry x="970" y="425.5" width="90" height="48" as="geometry" />
        </mxCell>
      </root>
    </mxGraphModel>
  </diagram>
</mxfile>
